<mxfile host="app.diagrams.net" agent="Mozilla/5.0 (Windows NT 10.0; Win64; x64) AppleWebKit/537.36 (KHTML, like Gecko) Chrome/131.0.0.0 Safari/537.36" version="25.0.3">
  <diagram name="Page-1" id="4OEBX8FahgKUiZVJzNhD">
    <mxGraphModel dx="1050" dy="1691" grid="1" gridSize="10" guides="1" tooltips="1" connect="1" arrows="1" fold="1" page="1" pageScale="1" pageWidth="827" pageHeight="1169" math="0" shadow="0">
      <root>
        <mxCell id="0" />
        <mxCell id="1" parent="0" />
        <mxCell id="2" value=" S&#39;inscrire" style="whiteSpace=wrap;strokeWidth=2;" parent="1" vertex="1">
          <mxGeometry x="170" y="24" width="95" height="48" as="geometry" />
        </mxCell>
        <mxCell id="3" value="connecter" style="whiteSpace=wrap;strokeWidth=2;" parent="1" vertex="1">
          <mxGeometry x="330" y="24" width="92" height="48" as="geometry" />
        </mxCell>
        <mxCell id="4" value="" style="curved=1;startArrow=none;endArrow=block;exitX=1;exitY=0.5;entryX=0;entryY=0.5;exitDx=0;exitDy=0;entryDx=0;entryDy=0;" parent="1" source="2" target="3" edge="1">
          <mxGeometry relative="1" as="geometry">
            <Array as="points" />
          </mxGeometry>
        </mxCell>
        <mxCell id="SS3qME3kO6HfDRAjy-Wh-4" value="&#xa;&lt;code&gt;Utilisateur&lt;/code&gt; &#xa;&#xa;" style="shape=umlActor;verticalLabelPosition=bottom;verticalAlign=top;html=1;" vertex="1" parent="1">
          <mxGeometry x="60" y="24" width="30" height="60" as="geometry" />
        </mxCell>
        <mxCell id="SS3qME3kO6HfDRAjy-Wh-11" value=" Gérer son compte" style="whiteSpace=wrap;strokeWidth=2;" vertex="1" parent="1">
          <mxGeometry x="490" y="36" width="95" height="48" as="geometry" />
        </mxCell>
        <mxCell id="SS3qME3kO6HfDRAjy-Wh-12" value="" style="endArrow=classic;html=1;rounded=0;exitX=1;exitY=0.5;exitDx=0;exitDy=0;entryX=0;entryY=0.25;entryDx=0;entryDy=0;" edge="1" parent="1" source="3" target="SS3qME3kO6HfDRAjy-Wh-11">
          <mxGeometry width="50" height="50" relative="1" as="geometry">
            <mxPoint x="360" y="120" as="sourcePoint" />
            <mxPoint x="410" y="70" as="targetPoint" />
          </mxGeometry>
        </mxCell>
        <mxCell id="SS3qME3kO6HfDRAjy-Wh-13" value="&quot;inclued&quot;" style="endArrow=none;dashed=1;html=1;rounded=0;entryX=0;entryY=0.5;entryDx=0;entryDy=0;" edge="1" parent="1" target="SS3qME3kO6HfDRAjy-Wh-14">
          <mxGeometry width="50" height="50" relative="1" as="geometry">
            <mxPoint x="580" y="60" as="sourcePoint" />
            <mxPoint x="635" y="22" as="targetPoint" />
            <Array as="points">
              <mxPoint x="590" y="50" />
            </Array>
          </mxGeometry>
        </mxCell>
        <mxCell id="SS3qME3kO6HfDRAjy-Wh-14" value=" Modifier mot de passe" style="whiteSpace=wrap;strokeWidth=2;" vertex="1" parent="1">
          <mxGeometry x="660" y="-12" width="92" height="48" as="geometry" />
        </mxCell>
        <mxCell id="SS3qME3kO6HfDRAjy-Wh-15" value=" Historique" style="whiteSpace=wrap;strokeWidth=2;" vertex="1" parent="1">
          <mxGeometry x="660" y="90" width="92" height="48" as="geometry" />
        </mxCell>
        <mxCell id="SS3qME3kO6HfDRAjy-Wh-16" value="&quot;inclued&quot;" style="endArrow=none;dashed=1;html=1;rounded=0;entryX=0;entryY=0.5;entryDx=0;entryDy=0;exitX=1;exitY=1;exitDx=0;exitDy=0;" edge="1" parent="1" source="SS3qME3kO6HfDRAjy-Wh-11" target="SS3qME3kO6HfDRAjy-Wh-15">
          <mxGeometry width="50" height="50" relative="1" as="geometry">
            <mxPoint x="570" y="140" as="sourcePoint" />
            <mxPoint x="640" y="100" as="targetPoint" />
            <Array as="points" />
          </mxGeometry>
        </mxCell>
        <mxCell id="SS3qME3kO6HfDRAjy-Wh-18" value=" Ajouter des produits au panier" style="whiteSpace=wrap;strokeWidth=2;" vertex="1" parent="1">
          <mxGeometry x="170" y="140" width="92" height="48" as="geometry" />
        </mxCell>
        <mxCell id="SS3qME3kO6HfDRAjy-Wh-19" value="" style="endArrow=classic;html=1;rounded=0;entryX=0;entryY=0.25;entryDx=0;entryDy=0;" edge="1" parent="1" target="SS3qME3kO6HfDRAjy-Wh-18">
          <mxGeometry width="50" height="50" relative="1" as="geometry">
            <mxPoint x="100" y="90" as="sourcePoint" />
            <mxPoint x="150" y="40" as="targetPoint" />
          </mxGeometry>
        </mxCell>
        <mxCell id="SS3qME3kO6HfDRAjy-Wh-20" value="" style="endArrow=classic;html=1;rounded=0;entryX=0;entryY=0.5;entryDx=0;entryDy=0;" edge="1" parent="1" target="2">
          <mxGeometry width="50" height="50" relative="1" as="geometry">
            <mxPoint x="100" y="90" as="sourcePoint" />
            <mxPoint x="180" y="102" as="targetPoint" />
          </mxGeometry>
        </mxCell>
        <mxCell id="SS3qME3kO6HfDRAjy-Wh-21" value="Admin&lt;div&gt;&lt;br&gt;&lt;/div&gt;" style="shape=umlActor;verticalLabelPosition=bottom;verticalAlign=top;html=1;" vertex="1" parent="1">
          <mxGeometry x="60" y="240" width="30" height="60" as="geometry" />
        </mxCell>
        <mxCell id="SS3qME3kO6HfDRAjy-Wh-22" value=" Passer une commande" style="whiteSpace=wrap;strokeWidth=2;" vertex="1" parent="1">
          <mxGeometry x="330" y="140" width="92" height="48" as="geometry" />
        </mxCell>
        <mxCell id="SS3qME3kO6HfDRAjy-Wh-23" value=" Écrire un avis" style="whiteSpace=wrap;strokeWidth=2;" vertex="1" parent="1">
          <mxGeometry x="510" y="150" width="92" height="48" as="geometry" />
        </mxCell>
        <mxCell id="SS3qME3kO6HfDRAjy-Wh-24" value="" style="endArrow=classic;html=1;rounded=0;entryX=0;entryY=0.5;entryDx=0;entryDy=0;exitX=1;exitY=0.5;exitDx=0;exitDy=0;" edge="1" parent="1" source="SS3qME3kO6HfDRAjy-Wh-18" target="SS3qME3kO6HfDRAjy-Wh-22">
          <mxGeometry width="50" height="50" relative="1" as="geometry">
            <mxPoint x="260" y="170" as="sourcePoint" />
            <mxPoint x="310" y="120" as="targetPoint" />
          </mxGeometry>
        </mxCell>
        <mxCell id="SS3qME3kO6HfDRAjy-Wh-25" value="" style="endArrow=none;dashed=1;html=1;rounded=0;entryX=0;entryY=0.5;entryDx=0;entryDy=0;" edge="1" parent="1" target="SS3qME3kO6HfDRAjy-Wh-23">
          <mxGeometry width="50" height="50" relative="1" as="geometry">
            <mxPoint x="420" y="170" as="sourcePoint" />
            <mxPoint x="470" y="120" as="targetPoint" />
          </mxGeometry>
        </mxCell>
        <mxCell id="SS3qME3kO6HfDRAjy-Wh-26" value="&quot;extend&quot;" style="edgeLabel;html=1;align=center;verticalAlign=middle;resizable=0;points=[];" vertex="1" connectable="0" parent="SS3qME3kO6HfDRAjy-Wh-25">
          <mxGeometry x="-0.0574" y="4" relative="1" as="geometry">
            <mxPoint as="offset" />
          </mxGeometry>
        </mxCell>
        <mxCell id="SS3qME3kO6HfDRAjy-Wh-27" value="  Gérer les utilisateurs" style="whiteSpace=wrap;strokeWidth=2;" vertex="1" parent="1">
          <mxGeometry x="180" y="280" width="92" height="48" as="geometry" />
        </mxCell>
        <mxCell id="SS3qME3kO6HfDRAjy-Wh-28" value="" style="endArrow=classic;html=1;rounded=0;entryX=0;entryY=0.5;entryDx=0;entryDy=0;" edge="1" parent="1" source="SS3qME3kO6HfDRAjy-Wh-21" target="SS3qME3kO6HfDRAjy-Wh-27">
          <mxGeometry width="50" height="50" relative="1" as="geometry">
            <mxPoint x="90" y="310" as="sourcePoint" />
            <mxPoint x="140" y="260" as="targetPoint" />
          </mxGeometry>
        </mxCell>
        <mxCell id="SS3qME3kO6HfDRAjy-Wh-29" value="  Gérer les produits" style="whiteSpace=wrap;strokeWidth=2;" vertex="1" parent="1">
          <mxGeometry x="322" y="280" width="92" height="48" as="geometry" />
        </mxCell>
        <mxCell id="SS3qME3kO6HfDRAjy-Wh-41" value="" style="edgeStyle=orthogonalEdgeStyle;rounded=0;orthogonalLoop=1;jettySize=auto;html=1;" edge="1" parent="1" source="SS3qME3kO6HfDRAjy-Wh-30" target="SS3qME3kO6HfDRAjy-Wh-38">
          <mxGeometry relative="1" as="geometry" />
        </mxCell>
        <mxCell id="SS3qME3kO6HfDRAjy-Wh-30" value="  Gérer les commandes" style="whiteSpace=wrap;strokeWidth=2;" vertex="1" parent="1">
          <mxGeometry x="460" y="280" width="92" height="48" as="geometry" />
        </mxCell>
        <mxCell id="SS3qME3kO6HfDRAjy-Wh-31" value="" style="endArrow=classic;html=1;rounded=0;entryX=0;entryY=0.5;entryDx=0;entryDy=0;" edge="1" parent="1" target="SS3qME3kO6HfDRAjy-Wh-29">
          <mxGeometry width="50" height="50" relative="1" as="geometry">
            <mxPoint x="270" y="310" as="sourcePoint" />
            <mxPoint x="320" y="260" as="targetPoint" />
          </mxGeometry>
        </mxCell>
        <mxCell id="SS3qME3kO6HfDRAjy-Wh-32" value="" style="endArrow=classic;html=1;rounded=0;entryX=0;entryY=0.5;entryDx=0;entryDy=0;" edge="1" parent="1" target="SS3qME3kO6HfDRAjy-Wh-30">
          <mxGeometry width="50" height="50" relative="1" as="geometry">
            <mxPoint x="410" y="310" as="sourcePoint" />
            <mxPoint x="460" y="260" as="targetPoint" />
          </mxGeometry>
        </mxCell>
        <mxCell id="SS3qME3kO6HfDRAjy-Wh-33" value="Suivi du statut des commandes" style="whiteSpace=wrap;strokeWidth=2;" vertex="1" parent="1">
          <mxGeometry x="470" y="400" width="92" height="48" as="geometry" />
        </mxCell>
        <mxCell id="SS3qME3kO6HfDRAjy-Wh-36" value="" style="endArrow=none;dashed=1;html=1;rounded=0;exitX=0.75;exitY=0;exitDx=0;exitDy=0;" edge="1" parent="1" source="SS3qME3kO6HfDRAjy-Wh-33">
          <mxGeometry width="50" height="50" relative="1" as="geometry">
            <mxPoint x="490" y="380" as="sourcePoint" />
            <mxPoint x="540" y="330" as="targetPoint" />
          </mxGeometry>
        </mxCell>
        <mxCell id="SS3qME3kO6HfDRAjy-Wh-37" value="&quot;included&quot;" style="edgeLabel;html=1;align=center;verticalAlign=middle;resizable=0;points=[];" vertex="1" connectable="0" parent="SS3qME3kO6HfDRAjy-Wh-36">
          <mxGeometry x="0.0116" relative="1" as="geometry">
            <mxPoint x="1" as="offset" />
          </mxGeometry>
        </mxCell>
        <mxCell id="SS3qME3kO6HfDRAjy-Wh-40" value="" style="edgeStyle=orthogonalEdgeStyle;rounded=0;orthogonalLoop=1;jettySize=auto;html=1;" edge="1" parent="1" source="SS3qME3kO6HfDRAjy-Wh-38" target="SS3qME3kO6HfDRAjy-Wh-39">
          <mxGeometry relative="1" as="geometry" />
        </mxCell>
        <mxCell id="SS3qME3kO6HfDRAjy-Wh-38" value="  Modérer les avis" style="whiteSpace=wrap;strokeWidth=2;" vertex="1" parent="1">
          <mxGeometry x="602" y="280" width="118" height="48" as="geometry" />
        </mxCell>
        <mxCell id="SS3qME3kO6HfDRAjy-Wh-39" value="Gérer le stock" style="whiteSpace=wrap;strokeWidth=2;" vertex="1" parent="1">
          <mxGeometry x="752" y="280" width="118" height="48" as="geometry" />
        </mxCell>
        <mxCell id="SS3qME3kO6HfDRAjy-Wh-42" value="" style="shape=flexArrow;endArrow=classic;html=1;rounded=0;entryX=0.5;entryY=0;entryDx=0;entryDy=0;entryPerimeter=0;" edge="1" parent="1" target="SS3qME3kO6HfDRAjy-Wh-21">
          <mxGeometry width="50" height="50" relative="1" as="geometry">
            <mxPoint x="75" y="122" as="sourcePoint" />
            <mxPoint x="120" y="72" as="targetPoint" />
          </mxGeometry>
        </mxCell>
        <mxCell id="SS3qME3kO6HfDRAjy-Wh-45" value="&lt;span style=&quot;text-align: left;&quot;&gt;Traiter les commandes en attente&lt;/span&gt;" style="rounded=0;whiteSpace=wrap;html=1;" vertex="1" parent="1">
          <mxGeometry x="570" y="210" width="120" height="48" as="geometry" />
        </mxCell>
        <mxCell id="SS3qME3kO6HfDRAjy-Wh-46" value="&lt;strong&gt;Annuler une commande&lt;/strong&gt;." style="rounded=0;whiteSpace=wrap;html=1;" vertex="1" parent="1">
          <mxGeometry x="330" y="210" width="120" height="48" as="geometry" />
        </mxCell>
        <mxCell id="SS3qME3kO6HfDRAjy-Wh-48" value="" style="shape=flexArrow;endArrow=classic;html=1;rounded=0;exitX=0.5;exitY=0;exitDx=0;exitDy=0;entryX=1;entryY=1;entryDx=0;entryDy=0;" edge="1" parent="1" source="SS3qME3kO6HfDRAjy-Wh-30" target="SS3qME3kO6HfDRAjy-Wh-46">
          <mxGeometry width="50" height="50" relative="1" as="geometry">
            <mxPoint x="450" y="210" as="sourcePoint" />
            <mxPoint x="500" y="160" as="targetPoint" />
          </mxGeometry>
        </mxCell>
        <mxCell id="SS3qME3kO6HfDRAjy-Wh-49" value="" style="shape=flexArrow;endArrow=classic;html=1;rounded=0;exitX=0.5;exitY=0;exitDx=0;exitDy=0;entryX=0;entryY=1;entryDx=0;entryDy=0;" edge="1" parent="1" target="SS3qME3kO6HfDRAjy-Wh-45">
          <mxGeometry width="50" height="50" relative="1" as="geometry">
            <mxPoint x="506" y="280" as="sourcePoint" />
            <mxPoint x="450" y="258" as="targetPoint" />
          </mxGeometry>
        </mxCell>
      </root>
    </mxGraphModel>
  </diagram>
</mxfile>
